<?xml version="1.0" encoding="utf-8"?>
<!-- Generator: Adobe Illustrator 19.1.0, SVG Export Plug-In . SVG Version: 6.00 Build 0)  -->
<svg version="1.1" id="Layer_1" xmlns="http://www.w3.org/2000/svg" xmlns:xlink="http://www.w3.org/1999/xlink" x="0px" y="0px"
	 viewBox="-431 259.8 95.5 43.2" style="enable-background:new -431 259.8 95.5 43.2;" xml:space="preserve">
<style type="text/css">
	.st0{fill:#BCBCBC;}
</style>
<path class="st0" d="M-408.5,259.8c12.1,0,21.6,9.3,21.6,21.4s-9.6,21.8-21.6,21.8c-11.7,0-21.5-9.7-21.5-21.4
	C-430,269.3-420.7,259.8-408.5,259.8z M-390.5,281.2c0.2-9.7-8.8-18.1-18.1-17.8c-9.7,0.4-17.7,8.1-17.8,17.9c0,9.7,8.3,18,18,18
	C-398.7,299.3-390.5,291-390.5,281.2z"/>
<path class="st0" d="M-397.5,281.9c-0.7,0.4-1.4,1-2.1,1.1c-2.2,0.3-5.1-0.4-6.4,0.8c-1.1,1-0.5,4-0.6,6.2c-0.1,1.2-0.3,2.1-1.8,2.1
	c-1.6,0-1.7-0.9-1.7-2.1c0-1.4-0.1-2.8,0-4.2c0.1-1.9-0.6-2.8-2.6-2.6c-1.6,0.1-3.2,0.2-4.7-0.1c-0.6-0.1-1.4-1.2-1.5-1.9
	c-0.1-0.5,0.9-1.5,1.5-1.6c1.7-0.2,3.5-0.2,5.2-0.1c1.5,0.1,2.1-0.6,2.1-2c0-1.7-0.1-3.3,0.1-5c0.1-0.6,1-1.6,1.6-1.6
	s1.6,0.9,1.7,1.5c0.3,1.7,0.1,3.5,0.1,5.2c0,1.3,0.6,2,2,1.9c1.7-0.1,3.3-0.2,5,0c0.8,0.1,1.5,0.9,2.2,1.3
	C-397.5,281.1-397.5,281.5-397.5,281.9z"/>
<path class="st0" d="M-342.5,264.2c-0.5-1.5-1.9-2.5-3.6-2.5h-27.6c-1.7,0-3,1.1-3.6,2.5l-5.2,15v20.1c0,1.4,1.1,2.5,2.5,2.5h2.5
	c1.4,0,2.5-1.1,2.5-2.5v-2.5h30.1v2.5c0,1.4,1.1,2.5,2.5,2.5h2.5c1.4,0,2.5-1.1,2.5-2.5v-20.1L-342.5,264.2z M-373.7,289.2
	c-2.1,0-3.8-1.7-3.8-3.8s1.7-3.8,3.8-3.8c2.1,0,3.8,1.7,3.8,3.8S-371.6,289.2-373.7,289.2z M-346.1,289.2c-2.1,0-3.8-1.7-3.8-3.8
	s1.7-3.8,3.8-3.8s3.8,1.7,3.8,3.8S-344,289.2-346.1,289.2z M-377.5,276.7l3.8-11.3h27.6l3.8,11.3H-377.5z"/>
</svg>
