<?xml version="1.0" encoding="utf-8"?>
<!-- Generator: Adobe Illustrator 19.1.0, SVG Export Plug-In . SVG Version: 6.00 Build 0)  -->
<svg version="1.1" id="Layer_1" xmlns="http://www.w3.org/2000/svg" xmlns:xlink="http://www.w3.org/1999/xlink" x="0px" y="0px"
	 viewBox="0 0 95.5 43.2" style="enable-background:new 0 0 95.5 43.2;" xml:space="preserve">
<style type="text/css">
	.st0{fill:#FFFFFF;}
</style>
<path class="st0" d="M22.5,0c12.1,0,21.6,9.3,21.6,21.4c0,12.1-9.6,21.8-21.6,21.8C10.8,43.2,1,33.5,1,21.8C1,9.5,10.3,0,22.5,0z
	 M40.5,21.4c0.2-9.7-8.8-18.1-18.1-17.8C12.7,4,4.7,11.7,4.6,21.5c0,9.7,8.3,18,18,18C32.3,39.5,40.5,31.2,40.5,21.4z"/>
<path class="st0" d="M33.5,22.1c-0.7,0.4-1.4,1-2.1,1.1c-2.2,0.3-5.1-0.4-6.4,0.8c-1.1,1-0.5,4-0.6,6.2c-0.1,1.2-0.3,2.1-1.8,2.1
	c-1.6,0-1.7-0.9-1.7-2.1c0-1.4-0.1-2.8,0-4.2c0.1-1.9-0.6-2.8-2.6-2.6c-1.6,0.1-3.2,0.2-4.7-0.1c-0.6-0.1-1.4-1.2-1.5-1.9
	c-0.1-0.5,0.9-1.5,1.5-1.6c1.7-0.2,3.5-0.2,5.2-0.1c1.5,0.1,2.1-0.6,2.1-2c0-1.7-0.1-3.3,0.1-5c0.1-0.6,1-1.6,1.6-1.6
	c0.6,0,1.6,0.9,1.7,1.5c0.3,1.7,0.1,3.5,0.1,5.2c0,1.3,0.6,2,2,1.9c1.7-0.1,3.3-0.2,5,0c0.8,0.1,1.5,0.9,2.2,1.3
	C33.5,21.3,33.5,21.7,33.5,22.1z"/>
<path class="st0" d="M88.5,4.4c-0.5-1.5-1.9-2.5-3.6-2.5H57.3c-1.7,0-3,1.1-3.6,2.5l-5.2,15v20.1c0,1.4,1.1,2.5,2.5,2.5h2.5
	c1.4,0,2.5-1.1,2.5-2.5V37h30.1v2.5c0,1.4,1.1,2.5,2.5,2.5h2.5c1.4,0,2.5-1.1,2.5-2.5V19.4L88.5,4.4z M57.3,29.4
	c-2.1,0-3.8-1.7-3.8-3.8s1.7-3.8,3.8-3.8c2.1,0,3.8,1.7,3.8,3.8S59.4,29.4,57.3,29.4z M84.9,29.4c-2.1,0-3.8-1.7-3.8-3.8
	s1.7-3.8,3.8-3.8c2.1,0,3.8,1.7,3.8,3.8S87,29.4,84.9,29.4z M53.5,16.9l3.8-11.3h27.6l3.8,11.3H53.5z"/>
</svg>
