<?xml version="1.0" encoding="utf-8"?>
<!-- Generator: Adobe Illustrator 19.1.0, SVG Export Plug-In . SVG Version: 6.00 Build 0)  -->
<svg version="1.1" id="Layer_1" xmlns="http://www.w3.org/2000/svg" xmlns:xlink="http://www.w3.org/1999/xlink" x="0px" y="0px"
	 viewBox="-431 259.8 24 43.2" style="enable-background:new -431 259.8 24 43.2;" xml:space="preserve">
<style type="text/css">
	.st0{fill:none;}
	.st1{opacity:0.1;fill:none;}
	.st2{fill:#FFFFFF;}
</style>
<path class="st0" d="M-883.1,521.5h24v24h-24V521.5z"/>
<path class="st1" d="M-431,269.4h24v24h-24V269.4z"/>
<path class="st2" d="M-416.4,277.4l-2.6,2.6l-2.6-2.6l-1.4,1.4l2.6,2.6l-2.6,2.6l1.4,1.4l2.6-2.6l2.6,2.6l1.4-1.4l-2.6-2.6l2.6-2.6
	L-416.4,277.4z M-419,271.4c-5.5,0-10,4.5-10,10s4.5,10,10,10s10-4.5,10-10S-413.5,271.4-419,271.4z M-419,289.4c-4.4,0-8-3.6-8-8
	s3.6-8,8-8s8,3.6,8,8S-414.6,289.4-419,289.4z"/>
</svg>
