<?xml version="1.0" encoding="utf-8"?>
<!-- Generator: Adobe Illustrator 19.1.0, SVG Export Plug-In . SVG Version: 6.00 Build 0)  -->
<svg version="1.1" id="Layer_1" xmlns="http://www.w3.org/2000/svg" xmlns:xlink="http://www.w3.org/1999/xlink" x="0px" y="0px"
	 viewBox="-431 259.8 95.5 43.2" style="enable-background:new -431 259.8 95.5 43.2;" xml:space="preserve">
<style type="text/css">
	.st0{fill:#BCBCBC;}
	.st1{fill:none;}
</style>
<path class="st0" d="M-342.5,264.2c-0.5-1.5-1.9-2.5-3.6-2.5h-27.6c-1.7,0-3,1.1-3.6,2.5l-5.2,15v20.1c0,1.4,1.1,2.5,2.5,2.5h2.5
	c1.4,0,2.5-1.1,2.5-2.5v-2.5h30.1v2.5c0,1.4,1.1,2.5,2.5,2.5h2.5c1.4,0,2.5-1.1,2.5-2.5v-20.1L-342.5,264.2z M-373.7,289.2
	c-2.1,0-3.8-1.7-3.8-3.8s1.7-3.8,3.8-3.8c2.1,0,3.8,1.7,3.8,3.8S-371.6,289.2-373.7,289.2z M-346.1,289.2c-2.1,0-3.8-1.7-3.8-3.8
	s1.7-3.8,3.8-3.8s3.8,1.7,3.8,3.8S-344,289.2-346.1,289.2z M-377.5,276.7l3.8-11.3h27.6l3.8,11.3H-377.5z"/>
<path class="st0" d="M-398.7,286.9h-1.8l-0.6-0.6c2.2-2.6,3.6-6,3.6-9.7c0-8.2-6.7-14.9-14.9-14.9s-14.9,6.7-14.9,14.9
	s6.7,14.9,14.9,14.9c3.7,0,7.1-1.4,9.7-3.6l0.6,0.6v1.8l11.5,11.4l3.4-3.4L-398.7,286.9z M-412.4,286.9c-5.7,0-10.3-4.6-10.3-10.3
	s4.6-10.3,10.3-10.3s10.3,4.6,10.3,10.3S-406.7,286.9-412.4,286.9z"/>
<path class="st1" d="M-452.1,261.7h24v24h-24V261.7z"/>
</svg>
